<svg width="124" height="163" xmlns="http://www.w3.org/2000/svg" xmlns:xlink="http://www.w3.org/1999/xlink" overflow="hidden"><defs><clipPath id="clip0"><rect x="83" y="52" width="122" height="161"/></clipPath><clipPath id="clip1"><rect x="82" y="52" width="123" height="161"/></clipPath><clipPath id="clip2"><rect x="63" y="52" width="162" height="161"/></clipPath></defs><g transform="translate(-82 -51)"><g clip-path="url(#clip0)"><g clip-path="url(#clip1)"><g clip-path="url(#clip2)"><path d="M37.6575 79.8905 71.1745 92.4808 71.1745 82.7731 37.6575 70.1853Z" fill="#4B4B4B" transform="matrix(-1 0 0 1.00477 224.118 52)"/><path d="M137.047 80.9574 137.047 41.7873C137.047 37.7141 136.185 33.6091 134.677 29.641 132.412 23.6967 128.691 18.0465 124.002 13.266 119.308 8.48559 113.637 4.56483 107.372 2.20511 103.457 0.733265 99.6176 0 95.9857 0 91.8781-0.00250368 88.0252 0.948894 84.7667 2.8279L84.6381 2.90395 32.7644 38.5867C29.8 40.3499 27.3718 42.8755 25.7372 45.9556 24.0553 49.109 23.1853 52.812 23.1878 56.8826L23.1878 96.6542 75.4321 116.277 75.4321 122.495C72.3547 122.945 69.4348 123.57 66.728 124.364 64.158 125.118 61.7795 126.017 59.622 127.058 56.3947 128.624 53.6563 130.5 51.6014 132.792 50.5818 133.943 49.7356 135.201 49.1416 136.576 48.5451 137.95 48.2114 139.446 48.2114 140.967 48.2114 142.56 48.577 144.118 49.2204 145.54 49.7881 146.788 50.558 147.939 51.4806 148.998 53.0942 150.853 55.1648 152.428 57.5614 153.797 61.167 155.844 65.545 157.429 70.4701 158.533 75.3976 159.631 80.8741 160.235 86.6532 160.235 91.6856 160.235 96.4899 159.775 100.899 158.932 104.208 158.298 107.293 157.45 110.095 156.401 112.197 155.615 114.137 154.724 115.892 153.713 118.52 152.191 120.746 150.425 122.399 148.307 123.224 147.248 123.897 146.099 124.367 144.864 124.838 143.627 125.095 142.307 125.095 140.967 125.095 139.572 124.817 138.208 124.318 136.933 123.876 135.819 123.266 134.773 122.536 133.806 121.253 132.106 119.593 130.632 117.666 129.328 114.773 127.378 111.251 125.796 107.259 124.569 104.177 123.623 100.81 122.895 97.2391 122.406L97.2391 108.346 137.047 80.9574ZM30.6569 91.8108 30.6569 56.8823C30.6569 53.7684 31.3191 51.2058 32.3992 49.1719 33.4898 47.1405 34.9851 45.6214 36.8588 44.536L36.9846 44.4628 40.6009 41.9742C41.7307 41.7454 42.9371 41.6193 44.2196 41.6193 46.9552 41.6193 50.0194 42.1738 53.2939 43.4038 56.784 44.7126 60.1584 46.6573 63.241 49.0564 67.8688 52.6567 71.8371 57.2901 74.6174 62.2543 77.4031 67.2209 78.9854 72.5087 78.9801 77.3968L78.9801 108.719 75.6715 108.719 30.6569 91.8108ZM103.614 130.947C105.937 131.585 108.037 132.348 109.853 133.188 111.214 133.819 112.415 134.497 113.43 135.191 114.957 136.234 116.05 137.309 116.706 138.289 117.038 138.778 117.264 139.243 117.411 139.684 117.558 140.126 117.626 140.541 117.626 140.967 117.621 141.545 117.503 142.105 117.224 142.725 116.98 143.266 116.607 143.85 116.076 144.454 115.156 145.519 113.753 146.646 111.913 147.687 109.159 149.261 105.451 150.641 101.13 151.603 96.8128 152.567 91.88 153.119 86.6529 153.119 82.1012 153.119 77.7758 152.703 73.881 151.954 70.9586 151.397 68.2834 150.654 65.9394 149.778 64.184 149.124 62.6176 148.394 61.2825 147.623 59.2749 146.47 57.798 145.222 56.9095 144.068 56.4626 143.495 56.1578 142.948 55.9635 142.439 55.7688 141.928 55.6849 141.453 55.6824 140.967 55.6852 140.475 55.7719 139.997 55.9688 139.48 56.1425 139.033 56.4 138.554 56.7678 138.05 57.409 137.172 58.3917 136.231 59.7058 135.307 61.6768 133.924 64.3886 132.615 67.6372 131.564 69.9837 130.8 72.6092 130.172 75.4317 129.704L75.4317 137.617C75.4317 139.102 75.7469 140.513 76.3515 141.75 76.8034 142.676 77.4106 143.5 78.1172 144.197 79.1788 145.241 80.456 145.989 81.7964 146.473 83.1393 146.956 84.5504 147.185 85.9644 147.185 87.3048 147.185 88.6477 146.975 89.938 146.557 90.9051 146.239 91.8433 145.798 92.7159 145.225 94.0222 144.365 95.1782 143.188 95.9854 141.735 96.7972 140.281 97.2388 138.563 97.2388 136.728L97.2388 129.601C99.499 129.948 101.638 130.402 103.614 130.947ZM81.9679 137.617 81.9679 118.734 82.0784 118.776 83.7364 117.636 90.7004 112.845 90.7004 136.728C90.6979 137.54 90.5374 138.144 90.3008 138.641 90.1221 139.012 89.8964 139.322 89.6176 139.6 89.2023 140.016 88.6637 140.355 88.0302 140.594 87.3943 140.833 86.6717 140.962 85.9647 140.959 85.3764 140.962 84.798 140.873 84.2988 140.715 83.9255 140.597 83.589 140.439 83.3052 140.257 82.8849 139.981 82.5801 139.666 82.3538 139.267 82.1335 138.87 81.9704 138.368 81.9679 137.617ZM84.1148 108.593 84.1148 77.3965 84.1148 75.8405 84.0704 75.8405C83.881 72.427 83.0902 68.9816 81.813 65.6311 79.6079 59.8417 75.9681 54.3123 71.3799 49.6348 66.7912 44.962 61.2515 41.1386 55.1757 38.8546 52.6821 37.9166 50.2354 37.2963 47.8619 36.9781L88.7272 8.86928C90.7007 7.75765 93.1183 7.11921 95.9857 7.11389 98.5532 7.11389 101.475 7.63935 104.629 8.82734 107.995 10.0886 111.267 11.9704 114.268 14.3066 118.77 17.8071 122.651 22.3325 125.353 27.1652 126.709 29.5831 127.768 32.0718 128.486 34.5395 129.206 37.0097 129.579 39.4539 129.579 41.7873L129.579 77.3201 84.1148 108.593Z" fill="#4B4B4B" transform="matrix(-1 0 0 1.00477 224.118 52)"/></g></g></g></g></svg>